# xmcd
#
# Track frame offsets: 
#        150
#        14958
#        33400
#        51598
#        69164
#        87089
#        102919
#        118660
#        136803
#        155310
#        173029
#        192824
#        210390
#        226617
#        247839
#        270889
#
# Disc length: 3817 seconds
#
# Revision: 5
# Processed by: cddbd v1.5.2PL0 Copyright (c) Steve Scherf et al.
# Submitted via: ExactAudioCopy v0.99pb4
#
DISCID=c60ee710
DTITLE=蔡琴 - 恰似你的溫柔
DYEAR=1998
DGENRE=Folk
TTITLE0=出塞曲 
TTITLE1=恰似你的溫柔 
TTITLE2=抉擇
TTITLE3=你的眼神
TTITLE4=我的思念
TTITLE5=我不哭泣
TTITLE6=盼與寄 
TTITLE7=秋夢
TTITLE8=相思雨
TTITLE9=枯\葉
TTITLE10=昨日
TTITLE11=船
TTITLE12=遠揚的夢舟
TTITLE13=細雨
TTITLE14=昨夜鐘聲 
TTITLE15=贈別
EXTD=YEAR: 1998
EXTT0=
EXTT1=
EXTT2=
EXTT3=
EXTT4=
EXTT5=
EXTT6=
EXTT7=
EXTT8=
EXTT9=
EXTT10=
EXTT11=
EXTT12=
EXTT13=
EXTT14=
EXTT15=
PLAYORDER=
